<?xml version="1.0" encoding="UTF-8" standalone="no"?>
<svg width="27px" height="22px" viewBox="0 0 27 22" version="1.1" xmlns="http://www.w3.org/2000/svg" xmlns:xlink="http://www.w3.org/1999/xlink">
    <!-- Generator: Sketch 47.1 (45422) - http://www.bohemiancoding.com/sketch -->
    <title>logo</title>
    <desc>Created with Sketch.</desc>
    <defs>
        <linearGradient x1="94.703757%" y1="28.1211052%" x2="-3.67340429%" y2="100%" id="linearGradient-1">
            <stop stop-color="#00EAFF" offset="0%"></stop>
            <stop stop-color="#00AAFF" offset="52.7802136%"></stop>
            <stop stop-color="#1C5FE6" offset="100%"></stop>
        </linearGradient>
        <linearGradient x1="94.703757%" y1="28.1211052%" x2="-3.67340429%" y2="100%" id="linearGradient-2">
            <stop stop-color="#F4FF00" offset="0%"></stop>
            <stop stop-color="#1C5FE6" stop-opacity="0" offset="100%"></stop>
        </linearGradient>
        <linearGradient x1="96.7068046%" y1="8.38062678%" x2="-3.2266995%" y2="95.8568468%" id="linearGradient-3">
            <stop stop-color="#00D4FF" offset="0%"></stop>
            <stop stop-color="#0096FF" offset="43.6752069%"></stop>
            <stop stop-color="#003DF2" offset="100%"></stop>
        </linearGradient>
        <linearGradient x1="95.5911963%" y1="17.9058014%" x2="-19.3232777%" y2="115.899303%" id="linearGradient-4">
            <stop stop-color="#02F68F" offset="0%"></stop>
            <stop stop-color="#00F7BC" offset="37.3619555%"></stop>
            <stop stop-color="#0099FF" offset="100%"></stop>
        </linearGradient>
    </defs>
    <g id="Page-1" stroke="none" stroke-width="1" fill="none" fill-rule="evenodd">
        <g id="内页-文档样式" transform="translate(-1076.000000, -4806.000000)">
            <g id="Global-Header&amp;Footer" transform="translate(0.000000, 4718.000000)">
                <g id="蚂蚁体验云" transform="translate(1076.000000, 86.000000)">
                    <g id="logo" transform="translate(0.000000, 2.000000)">
                        <g id="画板-3-拷贝-30" transform="translate(0.000000, 0.014502)">
                            <path d="M7.96372562,7.89367528 C3.72567778,7.90106262 0.371730836,11.2148541 0.157861494,15.4341845 L15.6167555,15.4341845 C16.7368282,15.4351089 17.8510558,15.2732876 18.9243036,14.9538235 C18.9832979,14.5585409 19.012902,14.159452 19.0128739,13.7598187 L19.0128739,7.89367528 L7.96372562,7.89367528 Z" id="形状_845_拷贝_10" fill="url(#linearGradient-1)"></path>
                            <path d="M7.96372562,7.89367528 C3.72567778,7.90106262 0.371730836,11.2148541 0.157861494,15.4341845 L15.6167555,15.4341845 C16.7368282,15.4351089 17.8510558,15.2732876 18.9243036,14.9538235 C18.9832979,14.5585409 19.012902,14.159452 19.0128739,13.7598187 L19.0128739,7.89367528 L7.96372562,7.89367528 Z" id="形状_845_拷贝_10" fill-opacity="0.1" fill="url(#linearGradient-2)"></path>
                            <path d="M11.5407078,0.0827732951 C8.51333604,0.0886582099 5.61227774,1.31064767 3.47577244,3.47990115 C1.33926714,5.64915462 0.142338375,8.58796583 0.14831327,11.6497895 L0.14831327,15.4336327 C0.36865867,11.2143022 3.80887101,7.9005108 7.98604061,7.89312346 L18.8764714,7.89312346 L18.8764714,13.7592669 C18.876499,14.1589002 18.8473202,14.557989 18.7891733,14.9532717 C23.6227507,13.4785309 26.9283807,8.97279806 26.9228956,3.86661652 L26.9228956,0.0827732951 L11.5407078,0.0827732951 Z" id="形状_845_拷贝_10-2" fill="url(#linearGradient-3)"></path>
                            <path d="M15.5226831,15.4347363 L0.151407542,15.4347363 C0.144587382,15.5726918 0.141859318,15.711613 0.141859318,15.8514999 L0.141859318,21.7169535 L11.0322901,21.7169535 C14.9135197,21.7105769 18.2075094,18.8364311 18.7827194,14.9543753 C17.7248885,15.2738394 16.6266663,15.4356607 15.5226831,15.4347363 Z" id="形状_845_拷贝_10-3" fill="url(#linearGradient-4)"></path>
                        </g>
                    </g>
                </g>
            </g>
        </g>
    </g>
</svg>