<?xml version="1.0" encoding="UTF-8"?>
<svg width="102px" height="74px" viewBox="0 0 102 74" version="1.1" xmlns="http://www.w3.org/2000/svg" xmlns:xlink="http://www.w3.org/1999/xlink">
    <!-- Generator: Sketch 48.2 (47327) - http://www.bohemiancoding.com/sketch -->
    <title>Combined Shape</title>
    <desc>Created with Sketch.</desc>
    <defs></defs>
    <g id="-Ant-Design-门户" stroke="none" stroke-width="1" fill="none" fill-rule="evenodd" transform="translate(-1287.000000, -1982.000000)">
        <g id="解决方案" transform="translate(0.000000, 1444.000000)" fill="#13C2C2">
            <g id="Group-27" transform="translate(80.000000, 219.000000)">
                <g id="Group-11" transform="translate(1207.000000, 319.000000)">
                    <path d="M2,4 C0.8954305,4 0,3.1045695 0,2 C0,0.8954305 0.8954305,0 2,0 C3.1045695,0 4,0.8954305 4,2 C4,3.1045695 3.1045695,4 2,4 Z M16,4 C14.8954305,4 14,3.1045695 14,2 C14,0.8954305 14.8954305,0 16,0 C17.1045695,0 18,0.8954305 18,2 C18,3.1045695 17.1045695,4 16,4 Z M30,4 C28.8954305,4 28,3.1045695 28,2 C28,0.8954305 28.8954305,0 30,0 C31.1045695,0 32,0.8954305 32,2 C32,3.1045695 31.1045695,4 30,4 Z M44,4 C42.8954305,4 42,3.1045695 42,2 C42,0.8954305 42.8954305,0 44,0 C45.1045695,0 46,0.8954305 46,2 C46,3.1045695 45.1045695,4 44,4 Z M58,4 C56.8954305,4 56,3.1045695 56,2 C56,0.8954305 56.8954305,0 58,0 C59.1045695,0 60,0.8954305 60,2 C60,3.1045695 59.1045695,4 58,4 Z M72,4 C70.8954305,4 70,3.1045695 70,2 C70,0.8954305 70.8954305,0 72,0 C73.1045695,0 74,0.8954305 74,2 C74,3.1045695 73.1045695,4 72,4 Z M86,4 C84.8954305,4 84,3.1045695 84,2 C84,0.8954305 84.8954305,0 86,0 C87.1045695,0 88,0.8954305 88,2 C88,3.1045695 87.1045695,4 86,4 Z M100,4 C98.8954305,4 98,3.1045695 98,2 C98,0.8954305 98.8954305,0 100,0 C101.104569,0 102,0.8954305 102,2 C102,3.1045695 101.104569,4 100,4 Z M2,18 C0.8954305,18 0,17.1045695 0,16 C0,14.8954305 0.8954305,14 2,14 C3.1045695,14 4,14.8954305 4,16 C4,17.1045695 3.1045695,18 2,18 Z M16,18 C14.8954305,18 14,17.1045695 14,16 C14,14.8954305 14.8954305,14 16,14 C17.1045695,14 18,14.8954305 18,16 C18,17.1045695 17.1045695,18 16,18 Z M30,18 C28.8954305,18 28,17.1045695 28,16 C28,14.8954305 28.8954305,14 30,14 C31.1045695,14 32,14.8954305 32,16 C32,17.1045695 31.1045695,18 30,18 Z M44,18 C42.8954305,18 42,17.1045695 42,16 C42,14.8954305 42.8954305,14 44,14 C45.1045695,14 46,14.8954305 46,16 C46,17.1045695 45.1045695,18 44,18 Z M58,18 C56.8954305,18 56,17.1045695 56,16 C56,14.8954305 56.8954305,14 58,14 C59.1045695,14 60,14.8954305 60,16 C60,17.1045695 59.1045695,18 58,18 Z M72,18 C70.8954305,18 70,17.1045695 70,16 C70,14.8954305 70.8954305,14 72,14 C73.1045695,14 74,14.8954305 74,16 C74,17.1045695 73.1045695,18 72,18 Z M86,18 C84.8954305,18 84,17.1045695 84,16 C84,14.8954305 84.8954305,14 86,14 C87.1045695,14 88,14.8954305 88,16 C88,17.1045695 87.1045695,18 86,18 Z M100,18 C98.8954305,18 98,17.1045695 98,16 C98,14.8954305 98.8954305,14 100,14 C101.104569,14 102,14.8954305 102,16 C102,17.1045695 101.104569,18 100,18 Z M2,32 C0.8954305,32 0,31.1045695 0,30 C0,28.8954305 0.8954305,28 2,28 C3.1045695,28 4,28.8954305 4,30 C4,31.1045695 3.1045695,32 2,32 Z M16,32 C14.8954305,32 14,31.1045695 14,30 C14,28.8954305 14.8954305,28 16,28 C17.1045695,28 18,28.8954305 18,30 C18,31.1045695 17.1045695,32 16,32 Z M30,32 C28.8954305,32 28,31.1045695 28,30 C28,28.8954305 28.8954305,28 30,28 C31.1045695,28 32,28.8954305 32,30 C32,31.1045695 31.1045695,32 30,32 Z M44,32 C42.8954305,32 42,31.1045695 42,30 C42,28.8954305 42.8954305,28 44,28 C45.1045695,28 46,28.8954305 46,30 C46,31.1045695 45.1045695,32 44,32 Z M58,32 C56.8954305,32 56,31.1045695 56,30 C56,28.8954305 56.8954305,28 58,28 C59.1045695,28 60,28.8954305 60,30 C60,31.1045695 59.1045695,32 58,32 Z M72,32 C70.8954305,32 70,31.1045695 70,30 C70,28.8954305 70.8954305,28 72,28 C73.1045695,28 74,28.8954305 74,30 C74,31.1045695 73.1045695,32 72,32 Z M86,32 C84.8954305,32 84,31.1045695 84,30 C84,28.8954305 84.8954305,28 86,28 C87.1045695,28 88,28.8954305 88,30 C88,31.1045695 87.1045695,32 86,32 Z M100,32 C98.8954305,32 98,31.1045695 98,30 C98,28.8954305 98.8954305,28 100,28 C101.104569,28 102,28.8954305 102,30 C102,31.1045695 101.104569,32 100,32 Z M2,46 C0.8954305,46 0,45.1045695 0,44 C0,42.8954305 0.8954305,42 2,42 C3.1045695,42 4,42.8954305 4,44 C4,45.1045695 3.1045695,46 2,46 Z M16,46 C14.8954305,46 14,45.1045695 14,44 C14,42.8954305 14.8954305,42 16,42 C17.1045695,42 18,42.8954305 18,44 C18,45.1045695 17.1045695,46 16,46 Z M30,46 C28.8954305,46 28,45.1045695 28,44 C28,42.8954305 28.8954305,42 30,42 C31.1045695,42 32,42.8954305 32,44 C32,45.1045695 31.1045695,46 30,46 Z M44,46 C42.8954305,46 42,45.1045695 42,44 C42,42.8954305 42.8954305,42 44,42 C45.1045695,42 46,42.8954305 46,44 C46,45.1045695 45.1045695,46 44,46 Z M58,46 C56.8954305,46 56,45.1045695 56,44 C56,42.8954305 56.8954305,42 58,42 C59.1045695,42 60,42.8954305 60,44 C60,45.1045695 59.1045695,46 58,46 Z M72,46 C70.8954305,46 70,45.1045695 70,44 C70,42.8954305 70.8954305,42 72,42 C73.1045695,42 74,42.8954305 74,44 C74,45.1045695 73.1045695,46 72,46 Z M86,46 C84.8954305,46 84,45.1045695 84,44 C84,42.8954305 84.8954305,42 86,42 C87.1045695,42 88,42.8954305 88,44 C88,45.1045695 87.1045695,46 86,46 Z M100,46 C98.8954305,46 98,45.1045695 98,44 C98,42.8954305 98.8954305,42 100,42 C101.104569,42 102,42.8954305 102,44 C102,45.1045695 101.104569,46 100,46 Z M2,60 C0.8954305,60 0,59.1045695 0,58 C0,56.8954305 0.8954305,56 2,56 C3.1045695,56 4,56.8954305 4,58 C4,59.1045695 3.1045695,60 2,60 Z M16,60 C14.8954305,60 14,59.1045695 14,58 C14,56.8954305 14.8954305,56 16,56 C17.1045695,56 18,56.8954305 18,58 C18,59.1045695 17.1045695,60 16,60 Z M30,60 C28.8954305,60 28,59.1045695 28,58 C28,56.8954305 28.8954305,56 30,56 C31.1045695,56 32,56.8954305 32,58 C32,59.1045695 31.1045695,60 30,60 Z M44,60 C42.8954305,60 42,59.1045695 42,58 C42,56.8954305 42.8954305,56 44,56 C45.1045695,56 46,56.8954305 46,58 C46,59.1045695 45.1045695,60 44,60 Z M58,60 C56.8954305,60 56,59.1045695 56,58 C56,56.8954305 56.8954305,56 58,56 C59.1045695,56 60,56.8954305 60,58 C60,59.1045695 59.1045695,60 58,60 Z M72,60 C70.8954305,60 70,59.1045695 70,58 C70,56.8954305 70.8954305,56 72,56 C73.1045695,56 74,56.8954305 74,58 C74,59.1045695 73.1045695,60 72,60 Z M86,60 C84.8954305,60 84,59.1045695 84,58 C84,56.8954305 84.8954305,56 86,56 C87.1045695,56 88,56.8954305 88,58 C88,59.1045695 87.1045695,60 86,60 Z M100,60 C98.8954305,60 98,59.1045695 98,58 C98,56.8954305 98.8954305,56 100,56 C101.104569,56 102,56.8954305 102,58 C102,59.1045695 101.104569,60 100,60 Z M2,74 C0.8954305,74 0,73.1045695 0,72 C0,70.8954305 0.8954305,70 2,70 C3.1045695,70 4,70.8954305 4,72 C4,73.1045695 3.1045695,74 2,74 Z M16,74 C14.8954305,74 14,73.1045695 14,72 C14,70.8954305 14.8954305,70 16,70 C17.1045695,70 18,70.8954305 18,72 C18,73.1045695 17.1045695,74 16,74 Z M30,74 C28.8954305,74 28,73.1045695 28,72 C28,70.8954305 28.8954305,70 30,70 C31.1045695,70 32,70.8954305 32,72 C32,73.1045695 31.1045695,74 30,74 Z M44,74 C42.8954305,74 42,73.1045695 42,72 C42,70.8954305 42.8954305,70 44,70 C45.1045695,70 46,70.8954305 46,72 C46,73.1045695 45.1045695,74 44,74 Z M58,74 C56.8954305,74 56,73.1045695 56,72 C56,70.8954305 56.8954305,70 58,70 C59.1045695,70 60,70.8954305 60,72 C60,73.1045695 59.1045695,74 58,74 Z M72,74 C70.8954305,74 70,73.1045695 70,72 C70,70.8954305 70.8954305,70 72,70 C73.1045695,70 74,70.8954305 74,72 C74,73.1045695 73.1045695,74 72,74 Z M86,74 C84.8954305,74 84,73.1045695 84,72 C84,70.8954305 84.8954305,70 86,70 C87.1045695,70 88,70.8954305 88,72 C88,73.1045695 87.1045695,74 86,74 Z M100,74 C98.8954305,74 98,73.1045695 98,72 C98,70.8954305 98.8954305,70 100,70 C101.104569,70 102,70.8954305 102,72 C102,73.1045695 101.104569,74 100,74 Z" id="Combined-Shape"></path>
                </g>
            </g>
        </g>
    </g>
</svg>