<?xml version="1.0" encoding="UTF-8"?>
<svg width="91px" height="90px" viewBox="0 0 91 90" version="1.1" xmlns="http://www.w3.org/2000/svg" xmlns:xlink="http://www.w3.org/1999/xlink">
    <!-- Generator: Sketch 48.2 (47327) - http://www.bohemiancoding.com/sketch -->
    <title>插图</title>
    <desc>Created with Sketch.</desc>
    <defs></defs>
    <g id="-Ant-Design-门户" stroke="none" stroke-width="1" fill="none" fill-rule="evenodd" transform="translate(-781.000000, -2160.000000)">
        <g id="解决方案" transform="translate(0.000000, 1444.000000)">
            <g id="AntV" transform="translate(781.000000, 702.000000)">
                <g id="插图" transform="translate(0.000000, 14.000000)">
                    <circle id="Oval-17" fill="#F5222D" cx="50" cy="41" r="5"></circle>
                    <circle id="Oval-14" stroke="#0D1A26" cx="50" cy="41" r="40.5"></circle>
                    <path d="M49.3373494,90 C22.0890837,90 0,67.8872346 0,40.6097561 L8.77108434,40.6097561 C8.77108434,63.0379051 26.9332198,81.2195122 49.3373494,81.2195122 L49.3373494,90 Z" id="Combined-Shape" fill="#FADB14"></path>
                    <path d="M49.3373494,81.2172868 C26.8934659,80.9868787 8.77108434,62.8945281 8.77108434,40.6097561 C8.77108434,18.3249841 26.8934659,0.232633513 49.3373494,0.00222543788 L49.3373494,8.7804878 C31.777356,8.7804878 17.5421687,23.0309366 17.5421687,40.6097561 C17.5421687,58.1885756 31.777356,72.4390244 49.3373494,72.4390244 L49.3373494,81.2172868 Z" id="Combined-Shape" fill="#2F54EB"></path>
                    <path d="M81.1325301,40.6097561 L72.3614458,40.6097561 C72.3614458,27.8802661 62.0532067,17.5609756 49.3373494,17.5609756 C36.6214921,17.5609756 26.313253,27.8802661 26.313253,40.6097561 C26.313253,53.3392461 36.6214921,63.6585366 49.3373494,63.6585366 L49.3373494,72.4390244 C31.777356,72.4390244 17.5421687,58.1885756 17.5421687,40.6097561 C17.5421687,23.0309366 31.777356,8.7804878 49.3373494,8.7804878 C66.8973428,8.7804878 81.1325301,23.0309366 81.1325301,40.6097561 Z" id="Combined-Shape" fill="#13C2C2"></path>
                    <path d="M49.3373494,63.6585366 C36.6214921,63.6585366 26.313253,53.3392461 26.313253,40.6097561 C26.313253,27.8802661 36.6214921,17.5609756 49.3373494,17.5609756 C62.0532067,17.5609756 72.3614458,27.8802661 72.3614458,40.6097561 C72.3614458,53.3392461 62.0532067,63.6585366 49.3373494,63.6585366 Z M49.3373494,54.8780488 C57.2090706,54.8780488 63.5903614,48.4899166 63.5903614,40.6097561 C63.5903614,32.7295956 57.2090706,26.3414634 49.3373494,26.3414634 C41.4656282,26.3414634 35.0843373,32.7295956 35.0843373,40.6097561 C35.0843373,48.4899166 41.4656282,54.8780488 49.3373494,54.8780488 Z" id="Combined-Shape" fill="#FADB14"></path>
                </g>
            </g>
        </g>
    </g>
</svg>