<?xml version="1.0" encoding="UTF-8"?>
<svg width="152px" height="133px" viewBox="0 0 152 133" version="1.1" xmlns="http://www.w3.org/2000/svg" xmlns:xlink="http://www.w3.org/1999/xlink">
    <!-- Generator: Sketch 48.2 (47327) - http://www.bohemiancoding.com/sketch -->
    <title>Group 4</title>
    <desc>Created with Sketch.</desc>
    <defs>
        <filter x="-22.6%" y="-19.2%" width="145.2%" height="154.8%" filterUnits="objectBoundingBox" id="filter-1">
            <feOffset dx="0" dy="8" in="SourceAlpha" result="shadowOffsetOuter1"></feOffset>
            <feGaussianBlur stdDeviation="8" in="shadowOffsetOuter1" result="shadowBlurOuter1"></feGaussianBlur>
            <feColorMatrix values="0 0 0 0 0.980392157   0 0 0 0 0.858823529   0 0 0 0 0.0784313725  0 0 0 0.3 0" type="matrix" in="shadowBlurOuter1" result="shadowMatrixOuter1"></feColorMatrix>
            <feMerge>
                <feMergeNode in="shadowMatrixOuter1"></feMergeNode>
                <feMergeNode in="SourceGraphic"></feMergeNode>
            </feMerge>
        </filter>
    </defs>
    <g id="-Ant-Design-门户" stroke="none" stroke-width="1" fill="none" fill-rule="evenodd" transform="translate(-53.000000, -1715.000000)">
        <g id="解决方案" transform="translate(0.000000, 1444.000000)" fill="#FADB14">
            <g id="Group-6">
                <g id="Group-25" transform="translate(-79.000000, -21.000000)">
                    <g id="Group-26" transform="translate(146.000000, 298.000000)">
                        <g id="Group-4" filter="url(#filter-1)" transform="translate(0.466334, 0.443575)">
                            <path d="M0.866025404,5.13655198 L2.59807621,4.13655198 C3.07636883,3.86040961 3.68795924,4.02428476 3.96410162,4.50257739 L59.9641016,101.497423 C60.240244,101.975715 60.0763688,102.587306 59.5980762,102.863448 L57.8660254,103.863448 C57.3877328,104.13959 56.7761424,103.975715 56.5,103.497423 L0.5,6.50257739 C0.223857625,6.02428476 0.38773278,5.41269436 0.866025404,5.13655198 Z M12.8660254,4.13655198 L14.5980762,3.13655198 C15.0763688,2.86040961 15.6879592,3.02428476 15.9641016,3.50257739 L65.9641016,90.1051178 C66.240244,90.5834104 66.0763688,91.1950008 65.5980762,91.4711432 L63.8660254,92.4711432 C63.3877328,92.7472855 62.7761424,92.5834104 62.5,92.1051178 L12.5,5.50257739 C12.2238576,5.02428476 12.3877328,4.41269436 12.8660254,4.13655198 Z M25.8660254,4.13655198 L27.5980762,3.13655198 C28.0763688,2.86040961 28.6879592,3.02428476 28.9641016,3.50257739 L72.9641016,79.7128129 C73.240244,80.1911055 73.0763688,80.8026959 72.5980762,81.0788383 L70.8660254,82.0788383 C70.3877328,82.3549807 69.7761424,82.1911055 69.5,81.7128129 L25.5,5.50257739 C25.2238576,5.02428476 25.3877328,4.41269436 25.8660254,4.13655198 Z M39.8660254,4.13655198 L41.5980762,3.13655198 C42.0763688,2.86040961 42.6879592,3.02428476 42.9641016,3.50257739 L80.9641016,69.3205081 C81.240244,69.7988007 81.0763688,70.4103911 80.5980762,70.6865335 L78.8660254,71.6865335 C78.3877328,71.9626759 77.7761424,71.7988007 77.5,71.3205081 L39.5,5.50257739 C39.2238576,5.02428476 39.3877328,4.41269436 39.8660254,4.13655198 Z M53.8660254,4.33270441 L55.5980762,3.33270441 C56.0763688,3.05656203 56.6879592,3.22043719 56.9641016,3.69872981 L88.9641016,59.1243557 C89.240244,59.6026483 89.0763688,60.2142387 88.5980762,60.4903811 L86.8660254,61.4903811 C86.3877328,61.7665234 85.7761424,61.6026483 85.5,61.1243557 L53.5,5.69872981 C53.2238576,5.22043719 53.3877328,4.60884678 53.8660254,4.33270441 Z M66.8660254,3.52885683 L68.5980762,2.52885683 C69.0763688,2.25271445 69.6879592,2.41658961 69.9641016,2.89488223 L95.9641016,47.9282032 C96.240244,48.4064959 96.0763688,49.0180863 95.5980762,49.2942286 L93.8660254,50.2942286 C93.3877328,50.570371 92.7761424,50.4064959 92.5,49.9282032 L66.5,4.89488223 C66.2238576,4.41658961 66.3877328,3.8049992 66.8660254,3.52885683 Z M79.8660254,2.72500925 L81.5980762,1.72500925 C82.0763688,1.44886688 82.6879592,1.61274203 82.9641016,2.09103466 L102.964102,36.7320508 C103.240244,37.2103434 103.076369,37.8219338 102.598076,38.0980762 L100.866025,39.0980762 C100.387733,39.3742186 99.7761424,39.2103434 99.5,38.7320508 L79.5,4.09103466 C79.2238576,3.61274203 79.3877328,3.00115163 79.8660254,2.72500925 Z M92.8660254,1.92116168 L94.5980762,0.921161675 C95.0763688,0.6450193 95.6879592,0.808894455 95.9641016,1.28718708 L109.964102,25.5358984 C110.240244,26.014191 110.076369,26.6257814 109.598076,26.9019238 L107.866025,27.9019238 C107.387733,28.1780662 106.776142,28.014191 106.5,27.5358984 L92.5,3.28718708 C92.2238576,2.80889446 92.3877328,2.19730405 92.8660254,1.92116168 Z M105.866025,2.1173141 L107.598076,1.1173141 C108.076369,0.841171723 108.687959,1.00504688 108.964102,1.4833395 L116.964102,15.339746 C117.240244,15.8180386 117.076369,16.429629 116.598076,16.7057714 L114.866025,17.7057714 C114.387733,17.9819137 113.776142,17.8180386 113.5,17.339746 L105.5,3.4833395 C105.223858,3.00504688 105.387733,2.39345647 105.866025,2.1173141 Z M117.866025,2.31346652 L119.598076,1.31346652 C120.076369,1.03732415 120.687959,1.2011993 120.964102,1.67949192 L122.964102,5.14359354 C123.240244,5.62188616 123.076369,6.23347657 122.598076,6.50961894 L120.866025,7.50961894 C120.387733,7.78576132 119.776142,7.62188616 119.5,7.14359354 L117.5,3.67949192 C117.223858,3.2011993 117.387733,2.5896089 117.866025,2.31346652 Z" id="Combined-Shape"></path>
                        </g>
                    </g>
                </g>
            </g>
        </g>
    </g>
</svg>