<?xml version="1.0" encoding="UTF-8"?>
<svg width="66px" height="58px" viewBox="0 0 66 58" version="1.1" xmlns="http://www.w3.org/2000/svg" xmlns:xlink="http://www.w3.org/1999/xlink">
    <!-- Generator: Sketch 48.2 (47327) - http://www.bohemiancoding.com/sketch -->
    <title>插图</title>
    <desc>Created with Sketch.</desc>
    <defs></defs>
    <g id="-Ant-Design-门户" stroke="none" stroke-width="1" fill="none" fill-rule="evenodd" transform="translate(-1002.000000, -2871.000000)">
        <g id="工具&amp;资源" transform="translate(105.000000, 2626.000000)">
            <g id="Kitchen" transform="translate(897.000000, 233.000000)">
                <g id="插图" transform="translate(0.000000, 12.000000)">
                    <rect id="Rectangle-8" fill="#2F54EB" x="7.12328767" y="52.6461538" width="7.12328767" height="5.35384615" rx="0.8925"></rect>
                    <rect id="Rectangle-8" fill="#2F54EB" x="44.5205479" y="52.6461538" width="7.12328767" height="5.35384615" rx="0.8925"></rect>
                    <rect id="Rectangle-7" fill="#2F54EB" x="0" y="19.6307692" width="58.7671233" height="33.9076923" rx="0.8925"></rect>
                    <path d="M0.8925,19.6307692 L57.8746233,19.6307692 C58.3675374,19.6307692 58.7671233,20.0303551 58.7671233,20.5232692 L58.7671233,24.9846154 L0,24.9846154 L0,20.5232692 C-6.03645723e-17,20.0303551 0.399585861,19.6307692 0.8925,19.6307692 Z" id="Rectangle-7" fill="#13C2C2"></path>
                    <path d="M64.1441946,27.6615385 L60.3991678,27.6615385 C59.9912694,27.6615385 59.6575342,27.9979803 59.6575342,28.409187 L59.6575342,30.1660116 C59.6575342,30.5772183 59.9912694,30.9136601 60.3991678,30.9136601 L64.1441946,30.9136601 C64.5520931,30.9136601 64.8858282,30.5772183 64.8858282,30.1660116 L64.8858282,28.409187 C64.8858282,27.9979803 64.5520931,27.6615385 64.1441946,27.6615385 Z" id="Shape" stroke="#0D1A26" stroke-width="0.8925" fill="#F5222D" fill-rule="nonzero"></path>
                    <path d="M29.3835264,46.4 C25.9411836,46.4 23.1506849,43.6035023 23.1506849,40.1538462 C23.1506849,36.70419 25.9411836,33.9076923 29.3835264,33.9076923 C32.8258692,33.9076923 35.6164384,36.70419 35.6164384,40.1538462 C35.6164384,43.6035023 32.8258692,46.4 29.3835264,46.4 Z" id="Path" fill="#FFFFFF"></path>
                    <path d="M32.1597344,36.9038832 L31.8775428,36.6834764 C31.6730744,36.5237039 31.3760502,36.5616844 31.2176373,36.7678112 L28.5912163,40.1841911 C28.4327292,40.3903179 28.4704042,40.6897511 28.6748726,40.8494488 L28.95699,41.0698556 C29.1615325,41.2296281 29.4584826,41.1916475 29.6168955,40.9855208 L32.2433165,37.5691408 C32.4018036,37.3630141 32.3642028,37.0636557 32.1597344,36.9038832 Z" id="Shape" fill="#F5222D" fill-rule="nonzero"></path>
                    <path d="M49.8354373,7.80995029 C49.8534432,7.88062859 49.8630137,7.9546774 49.8630137,8.03096154 L49.8630137,16.9536538 C49.8630137,17.446568 49.4634278,17.8461538 48.9705137,17.8461538 L9.79660959,17.8461538 C9.30369545,17.8461538 8.90410959,17.446568 8.90410959,16.9536538 L8.90410959,8.03096154 C8.90410959,7.9546774 8.91368012,7.88062859 8.93168597,7.80995029 C7.36069884,7.26495013 6.23287671,5.77187586 6.23287671,4.01538462 C6.23287671,1.79774893 8.03062564,4.07373067e-16 10.2482613,0 L48.518862,-3.55271368e-15 C50.7364976,-3.96008675e-15 52.5342466,1.79774893 52.5342466,4.01538462 C52.5342466,5.77187586 51.4064244,7.26495013 49.8354373,7.80995029 Z" id="Combined-Shape" fill="#FADB14"></path>
                </g>
            </g>
        </g>
    </g>
</svg>