<?xml version="1.0" standalone="no"?><!DOCTYPE svg PUBLIC "-//W3C//DTD SVG 1.1//EN" "http://www.w3.org/Graphics/SVG/1.1/DTD/svg11.dtd"><svg t="1514359261842" class="icon" style="" viewBox="0 0 1024 1024" version="1.1" xmlns="http://www.w3.org/2000/svg" p-id="9197" xmlns:xlink="http://www.w3.org/1999/xlink" width="200" height="200"><defs><style type="text/css"></style></defs><path d="M755 140.3l0.5-0.3h0.3L512 0 268.3 140h-0.3l0.8 0.4L68.6 256v512L512 1024l443.4-256V256L755 140.3z m-30 506.4v171.2L548 920.1V534.7L883.4 341v215.7l-158.4 90z m-584.4-90.6V340.8L476 534.4v385.7L300 818.5V646.7l-159.4-90.6zM511.7 280l171.1-98.3 166.3 96-336.9 194.5-337-194.6 165.7-95.7L511.7 280z" p-id="9198" fill="#697B8C"></path></svg>