<?xml version="1.0" encoding="UTF-8"?>
<svg width="446px" height="62px" viewBox="0 0 446 62" version="1.1" xmlns="http://www.w3.org/2000/svg" xmlns:xlink="http://www.w3.org/1999/xlink">
    <!-- Generator: Sketch 47.1 (45422) - http://www.bohemiancoding.com/sketch -->
    <title>Ant Design Pro</title>
    <desc>Created with Sketch.</desc>
    <defs></defs>
    <g id="Page-1" stroke="none" stroke-width="1" fill="none" fill-rule="evenodd">
        <g id="Artboard" transform="translate(-227.000000, -250.000000)" fill-rule="nonzero" fill="#1482FF">
            <g id="Group-9" transform="translate(40.000000, 214.000000)">
                <path d="M193.977862,85.03125 L187,85.03125 L203.993676,38.9375 L210.253297,38.9375 L227.246973,85.03125 L220.269111,85.03125 L215.737861,72.125 L198.509112,72.125 L193.977862,85.03125 Z M200.516347,66.34375 L213.730626,66.34375 L207.123486,47.5163257 L200.516347,66.34375 Z M249.398486,49.75 C257.242369,49.75 261.679736,54.4473691 261.679736,62.71875 L261.679736,85.03125 L255.304736,85.03125 L255.304736,64.03125 C255.304736,58.2365391 252.955591,55.59375 247.867236,55.59375 C242.730777,55.59375 239.523486,59.0045493 239.523486,64.59375 L239.523486,85.03125 L233.148486,85.03125 L233.148486,50.34375 L239.273486,50.34375 L239.273486,55.0480359 C241.213483,51.5852129 244.621501,49.75 249.398486,49.75 Z M272.642236,50.34375 L272.642236,41.625 L279.017236,41.625 L279.017236,50.34375 L286.517236,50.34375 L286.517236,55.84375 L279.017236,55.84375 L279.017236,74.40625 C279.017236,78.107918 280.304696,79.5625 283.517236,79.5625 C284.432036,79.5625 284.939577,79.5363381 285.970566,79.4396829 L286.517236,79.3884325 L286.517236,84.8882405 L286.104129,84.9611418 C284.895195,85.1744831 283.873283,85.28125 282.860986,85.28125 C275.650185,85.28125 272.642236,82.4988974 272.642236,75.78125 L272.642236,55.84375 L267.204736,55.84375 L267.204736,50.34375 L272.642236,50.34375 Z M328.160986,38.9375 C341.827876,38.9375 349.942236,47.5209994 349.942236,61.96875 C349.942236,76.455377 341.851954,85.03125 328.160986,85.03125 L312.192236,85.03125 L312.192236,38.9375 L328.160986,38.9375 Z M318.817236,78.96875 L327.785986,78.96875 C337.551016,78.96875 343.192236,72.7763757 343.192236,62.03125 C343.192236,51.2694313 337.501647,45 327.785986,45 L318.817236,45 L318.817236,78.96875 Z M371.810986,55.5 C366.885067,55.5 363.393626,58.9781044 362.824649,64.40625 L380.322783,64.40625 C380.018761,58.9780555 376.707504,55.5 371.810986,55.5 Z M371.998486,79.875 C376.125915,79.875 378.90569,78.4029147 380.234118,75.5984568 L380.369571,75.3125 L386.720903,75.3125 L386.542333,75.9477974 C384.836976,82.0149331 379.391133,85.625 371.873486,85.625 C362.253522,85.625 356.185986,78.6558984 356.185986,67.71875 C356.185986,56.8469619 362.344582,49.75 371.873486,49.75 C381.241707,49.75 386.998486,56.4350039 386.998486,67.1875 L386.998486,69.75 L362.792761,69.75 C363.15114,76.0165245 366.661681,79.875 371.998486,79.875 Z M393.554736,60.0625 C393.554736,54.1631622 399.206336,49.75 406.617236,49.75 C413.908312,49.75 419.045917,53.4092888 419.800568,59.2168199 L419.873912,59.78125 L413.608385,59.78125 L413.509212,59.4104309 C412.831366,56.8758735 410.322151,55.3125 406.585986,55.3125 C402.742539,55.3125 399.960986,57.2290579 399.960986,59.84375 C399.960986,61.8365051 401.599602,63.1434171 405.421866,64.0764129 L410.609557,65.3264589 C417.272855,66.9348412 420.398486,69.9116331 420.398486,74.9375 C420.398486,81.1943177 414.42334,85.625 406.398486,85.625 C398.674797,85.625 393.276033,81.8761134 392.65128,75.9902761 L392.592605,75.4375 L399.045171,75.4375 L399.156131,75.7856821 C400.024568,78.5107792 402.61697,80.09375 406.585986,80.09375 C410.892596,80.09375 413.867236,78.0966119 413.867236,75.34375 C413.867236,73.3034378 412.295842,71.9051045 408.905311,71.0795838 L403.124368,69.6734084 C396.537793,68.075675 393.554736,65.146715 393.554736,60.0625 Z M427.860986,85.03125 L427.860986,50.34375 L434.235986,50.34375 L434.235986,85.03125 L427.860986,85.03125 Z M431.048486,44.5 C428.709844,44.5 426.798486,42.5886424 426.798486,40.25 C426.798486,37.9113576 428.709844,36 431.048486,36 C433.387129,36 435.298486,37.9113576 435.298486,40.25 C435.298486,42.5886424 433.387129,44.5 431.048486,44.5 Z M457.510986,78.78125 C463.396143,78.78125 467.010986,74.3530674 467.010986,67.1875 C467.010986,60.036008 463.376412,55.59375 457.510986,55.59375 C451.685268,55.59375 448.260986,59.9467878 448.260986,67.1875 C448.260986,74.4282122 451.685268,78.78125 457.510986,78.78125 Z M467.135986,50.34375 L473.260986,50.34375 L473.260986,85.125 C473.260986,92.9665911 467.192794,97.96875 457.760986,97.96875 C449.558099,97.96875 444.01001,94.2700243 443.141237,88.3222668 L443.057647,87.75 L449.727053,87.75 L449.812225,88.144477 C450.36245,90.6928896 453.24037,92.28125 457.760986,92.28125 C463.532809,92.28125 466.885986,89.5146802 466.885986,84.84375 L466.885986,79.1712578 C464.606381,82.6070994 460.827432,84.53125 456.323486,84.53125 C447.396256,84.53125 441.698486,77.6483444 441.698486,67.1875 C441.698486,56.7335567 447.45235,49.75 456.323486,49.75 C460.872867,49.75 464.955256,51.8315807 467.135986,55.2036083 L467.135986,50.34375 Z M498.535986,49.75 C506.379869,49.75 510.817236,54.4473691 510.817236,62.71875 L510.817236,85.03125 L504.442236,85.03125 L504.442236,64.03125 C504.442236,58.2365391 502.093091,55.59375 497.004736,55.59375 C491.868277,55.59375 488.660986,59.0045493 488.660986,64.59375 L488.660986,85.03125 L482.285986,85.03125 L482.285986,50.34375 L488.410986,50.34375 L488.410986,55.0480359 C490.350983,51.5852129 493.759001,49.75 498.535986,49.75 Z M544.804736,68.9375 L544.804736,85.03125 L538.179736,85.03125 L538.179736,38.9375 L555.710986,38.9375 C564.509299,38.9375 570.648486,45.1521307 570.648486,54.03125 C570.648486,62.737451 564.400891,68.9375 555.648486,68.9375 L544.804736,68.9375 Z M544.804736,44.9375 L544.804736,62.9375 L554.242236,62.9375 C560.387176,62.9375 563.867236,59.7088212 563.867236,54.03125 C563.867236,48.1256971 560.502769,44.9375 554.242236,44.9375 L544.804736,44.9375 Z M584.173486,53.8082472 C586.001938,51.3731525 589.668231,49.75 593.517236,49.75 C594.431262,49.75 595.573415,49.8155334 596.272293,49.9108349 L596.704736,49.9698045 L596.704736,56.444115 L596.067376,56.262012 C595.66507,56.1470673 593.748158,55.96875 592.767236,55.96875 C587.908073,55.96875 584.423486,59.1932925 584.423486,63.65625 L584.423486,85.03125 L578.048486,85.03125 L578.048486,50.34375 L584.173486,50.34375 L584.173486,53.8082472 Z M616.667236,85.625 C606.770521,85.625 600.635986,78.7493206 600.635986,67.6875 C600.635986,56.6056078 606.760567,49.75 616.667236,49.75 C626.573906,49.75 632.698486,56.6056078 632.698486,67.6875 C632.698486,78.7493206 626.563952,85.625 616.667236,85.625 Z M616.667236,79.78125 C622.711817,79.78125 626.135986,75.4339748 626.135986,67.6875 C626.135986,59.9213977 622.721079,55.59375 616.667236,55.59375 C610.613394,55.59375 607.198486,59.9213977 607.198486,67.6875 C607.198486,75.4339748 610.622656,79.78125 616.667236,79.78125 Z" id="Ant-Design-Pro"></path>
            </g>
        </g>
    </g>
</svg>